<svg width="200" height="46" viewBox="0 0 200 46" fill="none" xmlns="http://www.w3.org/2000/svg">
<path d="M63.6932 26.1611L63.9381 26.0802C65.2565 25.6432 66.2339 24.9103 66.8496 23.9045C67.4745 22.8826 67.7904 21.6595 67.7904 20.2746C67.7904 19.3682 67.6553 18.522 67.3898 17.7613C67.1289 17.0168 66.7169 16.3602 66.1652 15.8122C65.6136 15.2643 64.9018 14.8319 64.0503 14.5244C63.1873 14.2146 62.1436 14.0574 60.9465 14.0574H53.0474V33.243H56.1901V26.5149H60.301L64.4897 33.243H68.1955L63.4185 26.1727L63.6932 26.1611ZM61.0083 23.6178H56.1901V16.9613H61.0083C62.3382 16.9613 63.2858 17.285 63.826 17.9255C64.3524 18.5497 64.6202 19.3405 64.6202 20.2769C64.6202 21.2133 64.3547 22.0063 63.8282 22.6398C63.2881 23.2895 62.3382 23.6178 61.0083 23.6178Z" fill="black"/>
<path d="M78.3646 30.9866C77.1263 30.9866 76.1192 30.6028 75.3684 29.8467C74.6199 29.0907 74.24 27.93 74.24 26.3948V18.9314H71.3696V26.3925C71.3696 27.6017 71.539 28.6768 71.8755 29.5855C72.2074 30.4849 72.6812 31.2455 73.2832 31.8444C73.8852 32.4432 74.6199 32.8964 75.4691 33.19C76.332 33.4906 77.3071 33.6432 78.3669 33.6432C79.4244 33.6432 80.3995 33.4859 81.2601 33.1761C82.1093 32.8709 82.8464 32.4131 83.4483 31.812C84.0503 31.2132 84.5241 30.4571 84.856 29.567C85.1902 28.6676 85.3596 27.5994 85.3596 26.3902V18.9314H82.4893V26.3925C82.4893 27.9254 82.1093 29.0884 81.3608 29.8444C80.6101 30.6028 79.6029 30.9866 78.3646 30.9866Z" fill="black"/>
<path d="M102.063 20.3994C101.408 19.7775 100.655 19.3058 99.8195 19.0006C98.9772 18.6931 98.1257 18.5359 97.2902 18.5359C96.2282 18.5359 95.2851 18.7486 94.4863 19.1648C93.6943 19.5786 93.0671 20.1497 92.6208 20.8642L91.8975 21.8537L91.9021 21.0329V12.3557H89.0317V25.9669C89.0317 27.1345 89.2217 28.205 89.5948 29.1507C89.9656 30.094 90.4875 30.9078 91.1421 31.5714C91.7968 32.2327 92.5956 32.7483 93.5181 33.102C94.4474 33.4604 95.4934 33.6407 96.631 33.6407C97.7457 33.6407 98.7872 33.4488 99.7234 33.0719C100.66 32.6951 101.477 32.1679 102.152 31.5044C102.827 30.8431 103.356 30.0385 103.727 29.116C104.1 28.1888 104.287 27.1692 104.287 26.0872C104.287 24.8063 104.079 23.6826 103.669 22.7485C103.257 21.8144 102.717 21.0237 102.063 20.3994ZM100.08 29.6108C99.2106 30.5217 98.0479 30.9841 96.6287 30.9841C95.2073 30.9841 94.0514 30.5217 93.1907 29.6084C92.3347 28.7021 91.9021 27.516 91.9021 26.0872C91.9021 24.6583 92.3347 23.4722 93.1907 22.5659C94.0514 21.6526 95.2073 21.1902 96.6287 21.1902C98.0479 21.1902 99.2106 21.6526 100.08 22.5635C100.948 23.4722 101.385 24.6583 101.385 26.0872C101.385 27.5183 100.946 28.7044 100.08 29.6108Z" fill="black"/>
<path d="M109.284 12.2957C108.714 12.2957 108.244 12.4899 107.849 12.8899C107.453 13.2898 107.26 13.7731 107.26 14.3696C107.26 14.9453 107.453 15.4193 107.849 15.8193C108.244 16.2193 108.714 16.4135 109.284 16.4135C109.872 16.4135 110.346 16.2193 110.73 15.8216C111.117 15.4216 111.307 14.9453 111.307 14.3696C111.307 13.7731 111.119 13.2875 110.73 12.8875C110.346 12.4876 109.872 12.2957 109.284 12.2957Z" fill="black"/>
<path d="M110.736 18.9314H107.866V33.2455H110.736V18.9314Z" fill="black"/>
<path d="M121.627 25.9369L128.276 18.9313H124.692L118.846 25.4444H118.269V12.3557H115.399V33.2453H118.269V26.5195H118.846L124.873 33.2453H128.549L121.627 25.9369Z" fill="black"/>
<path d="M146.677 18.2078H141.101L135.711 24.2145V11.6345H131.408V33.9692H135.711V27.7497L141.282 33.9692H146.947L139.343 25.937L146.677 18.2078Z" fill="black"/>
<path d="M158.772 26.3925C158.772 27.7266 158.463 28.7162 157.852 29.3335C157.234 29.9578 156.419 30.2629 155.361 30.2629C154.304 30.2629 153.491 29.9601 152.871 29.3335C152.26 28.7185 151.951 27.7289 151.951 26.3925V18.2078H147.65V26.3925C147.65 27.6896 147.835 28.848 148.199 29.8375C148.568 30.8363 149.097 31.6849 149.776 32.3577C150.454 33.0328 151.28 33.5415 152.23 33.8721C153.169 34.1981 154.221 34.3646 155.359 34.3646C156.499 34.3646 157.552 34.1935 158.493 33.8559C159.44 33.516 160.267 33.0004 160.944 32.3276C161.622 31.6548 162.15 30.8109 162.519 29.8237C162.885 28.8433 163.068 27.6896 163.068 26.3925V18.2078H158.767V26.3925H158.772Z" fill="black"/>
<path d="M179.551 19.8748C178.826 19.1858 177.988 18.6632 177.063 18.3211C176.143 17.9835 175.209 17.8124 174.289 17.8124C173.113 17.8124 172.057 18.0505 171.156 18.5222C170.558 18.8343 170.043 19.2251 169.613 19.6921V11.6345H165.312V25.9671C165.312 27.2249 165.518 28.3855 165.925 29.419C166.333 30.4548 166.907 31.3519 167.633 32.0826C168.359 32.8155 169.242 33.3866 170.261 33.7773C171.272 34.1657 172.405 34.3646 173.628 34.3646C174.834 34.3646 175.962 34.1565 176.986 33.7449C178.009 33.3334 178.906 32.7554 179.65 32.0247C180.396 31.2918 180.982 30.4063 181.389 29.3913C181.797 28.3786 182.003 27.2665 182.003 26.0896C182.003 24.707 181.774 23.4839 181.325 22.4574C180.87 21.4331 180.275 20.5638 179.551 19.8748ZM176.562 29.1115C175.823 29.8861 174.861 30.2653 173.625 30.2653C172.389 30.2653 171.435 29.8884 170.705 29.1138C169.97 28.3347 169.613 27.3451 169.613 26.0896C169.613 24.8342 169.97 23.8469 170.705 23.0654C171.435 22.2909 172.389 21.914 173.625 21.914C174.861 21.914 175.823 22.2909 176.562 23.0678C177.306 23.8469 177.668 24.8365 177.668 26.0896C177.668 27.3428 177.306 28.33 176.562 29.1115Z" fill="black"/>
<path d="M199.717 26.0895C199.717 24.9127 199.511 23.8005 199.104 22.7879C198.696 21.7728 198.122 20.8873 197.398 20.1567C196.673 19.4261 195.787 18.8458 194.762 18.4319C193.738 18.0203 192.61 17.8123 191.404 17.8123C190.177 17.8123 189.044 18.0203 188.03 18.4319C187.016 18.8434 186.125 19.4215 185.384 20.1521C184.638 20.8827 184.054 21.7705 183.644 22.7879C183.237 23.8005 183.031 24.9127 183.031 26.0895C183.031 27.2663 183.237 28.3785 183.644 29.3911C184.054 30.4085 184.638 31.294 185.384 32.0246C186.128 32.7552 187.018 33.3332 188.03 33.7448C189.042 34.1563 190.177 34.3644 191.404 34.3644C193.235 34.3644 194.842 33.9136 196.181 33.0257C197.524 32.1356 198.502 30.9217 199.09 29.4166L199.282 28.9241H194.757L194.649 29.0628C193.972 29.9322 192.91 30.3553 191.404 30.3553C190.367 30.3553 189.504 30.0848 188.838 29.5507C188.256 29.086 187.854 28.4871 187.609 27.7288H199.717V26.0895ZM187.735 24.115C188.002 23.4653 188.403 22.9497 188.95 22.5451C189.598 22.0665 190.424 21.8237 191.406 21.8237C192.37 21.8237 193.191 22.0665 193.848 22.5474C194.402 22.952 194.805 23.4676 195.075 24.115H187.735Z" fill="black"/>
<path d="M22.7731 45.4974C35.0745 45.4974 45.0468 35.4244 45.0468 22.9986C45.0468 10.5728 35.0745 0.499756 22.7731 0.499756C10.4718 0.499756 0.499512 10.5728 0.499512 22.9986C0.499512 35.4244 10.4718 45.4974 22.7731 45.4974Z" fill="url(#paint0_linear_1752_3778)"/>
<path d="M23.8618 11.0589L21.7606 9.81958L19.6616 11.0589L21.7148 12.275L23.8618 11.0589Z" fill="white"/>
<path d="M17.2332 9.63013L14.7085 10.9873L17.2332 12.4647L19.6618 11.059L17.2332 9.63013Z" fill="white"/>
<path d="M25.2054 11.9167L20.8175 14.5386L17.2331 12.4647L13.5296 14.5618L17.185 16.6588L13.6463 18.6125V18.6611V21.7824L10.2495 19.8518V23.9026L13.6944 25.9048L13.6234 32.196L23.1385 37.8074L34.8853 31.1371V31.0931V17.4565L25.2054 11.9167ZM24.3654 34.4318V24.9314L32.6673 20.1362V29.7914L24.3654 34.4318Z" fill="white"/>
<path d="M8.10498 25.2114L10.181 26.4275L10.2497 23.9028L8.10498 22.7097V25.2114Z" fill="white"/>
<path opacity="0.2" d="M24.3647 24.9338V34.4319L32.6667 29.7915L24.3647 24.9338Z" fill="white"/>
<path opacity="0.1" d="M32.6673 29.8308L24.3654 34.4711V24.9731L13.6463 18.7004V21.8194L10.2495 19.8912V23.9419L13.6944 25.9419L13.6234 32.233L23.1385 37.8445L34.8853 31.1718V31.1279L32.6673 29.8308Z" fill="url(#paint1_linear_1752_3778)"/>
<path d="M8.10498 25.2504L10.181 26.4666L10.2497 23.9418L8.10498 22.7488V25.2504Z" fill="white"/>
<defs>
<linearGradient id="paint0_linear_1752_3778" x1="0.499512" y1="45.4974" x2="50.848" y2="37.6312" gradientUnits="userSpaceOnUse">
<stop stop-color="#2588EA"/>
<stop offset="1" stop-color="#3E46DD"/>
</linearGradient>
<linearGradient id="paint1_linear_1752_3778" x1="10.2495" y1="37.8445" x2="37.6434" y2="32.2811" gradientUnits="userSpaceOnUse">
<stop stop-color="#2588EA"/>
<stop offset="1" stop-color="#3E46DD"/>
</linearGradient>
</defs>
</svg>
